<svg width="23" height="24" viewBox="0 0 23 24" fill="none" xmlns="http://www.w3.org/2000/svg">
<path fill-rule="evenodd" clip-rule="evenodd" d="M22.5057 13.2033C22.4578 12.8347 22.3051 12.4876 22.0657 12.2033C21.9357 12.0711 21.7798 11.9673 21.6076 11.8984C21.4355 11.8295 21.251 11.7972 21.0657 11.8033C20.4692 11.8263 19.8747 11.8865 19.2857 11.9833L18.7757 12.0633C18.4942 10.5954 17.8515 9.22066 16.9057 8.06329C16.152 7.27354 15.2305 6.66315 14.2093 6.27718C13.1882 5.89121 12.0933 5.73951 11.0057 5.83329V4.51329V4.06329C11.5232 3.85233 11.9535 3.47143 12.2257 2.98329C12.4632 2.60158 12.5537 2.14641 12.48 1.70288C12.4064 1.25934 12.1738 0.857797 11.8257 0.573293C11.5039 0.279284 11.1017 0.087971 10.6706 0.0238387C10.2395 -0.0402936 9.79908 0.0256719 9.40567 0.213293C9.00898 0.411574 8.68293 0.727156 8.47182 1.11717C8.26071 1.50719 8.17477 1.95274 8.22567 2.39329C8.26093 2.75972 8.40356 3.10758 8.63567 3.39329C9.09831 3.77523 9.61362 4.08845 10.1657 4.32329V4.56329L10.3457 5.91329H9.88567C8.63874 6.12679 7.45435 6.61306 6.41715 7.33738C5.37994 8.06169 4.51553 9.00616 3.88567 10.1033C3.62243 10.7038 3.43758 11.3356 3.33567 11.9833C3.1011 11.9435 2.8636 11.9234 2.62567 11.9233C2.23373 11.9276 1.84266 11.9611 1.45567 12.0233C1.25712 12.0335 1.05978 12.0603 0.865671 12.1033C0.750896 12.1446 0.647921 12.2132 0.565671 12.3033C0.293863 12.6318 0.120523 13.0305 0.0656714 13.4533C-0.0218905 14.2576 -0.0218905 15.069 0.0656714 15.8733L0.285671 17.4733C0.296987 17.6526 0.327154 17.8303 0.375671 18.0033C0.417354 18.1342 0.493315 18.2516 0.595671 18.3433C0.832457 18.5461 1.12553 18.6717 1.43567 18.7033C1.93675 18.7306 2.43931 18.7072 2.93567 18.6333V19.1233C2.93567 19.4133 3.46567 19.1733 3.54567 18.7433C3.52456 17.2368 3.59804 15.7305 3.76567 14.2333C3.87841 12.9795 4.21721 11.7564 4.76567 10.6233C5.34642 9.6788 6.12578 8.87203 7.04964 8.259C7.97351 7.64597 9.01973 7.24137 10.1157 7.07329C11.1781 6.83193 12.2842 6.86109 13.3325 7.1581C14.3808 7.45511 15.3377 8.01047 16.1157 8.77329C17.0845 9.91726 17.7331 11.2974 17.9957 12.7733C18.439 14.9472 18.6237 17.166 18.5457 19.3833C18.5457 20.0433 19.1457 20.3833 19.2057 19.7133V18.5833C19.2057 18.5833 19.2557 18.6333 19.2857 18.6433L20.2257 18.7733C20.5743 18.8178 20.9271 18.8178 21.2757 18.7733C21.5723 18.7325 21.8486 18.5995 22.0657 18.3933C22.1528 18.2965 22.2146 18.1797 22.2457 18.0533C22.2644 17.8304 22.2644 17.6062 22.2457 17.3833L22.3657 15.2233C22.4806 14.5564 22.5275 13.8796 22.5057 13.2033ZM3.01567 14.1433C2.91604 15.4207 2.886 16.7026 2.92567 17.9833C2.54273 18.0076 2.15862 18.0076 1.77567 17.9833C1.58447 17.9785 1.40078 17.9079 1.25567 17.7833H1.28567V17.4433L1.23567 15.7933C1.16613 15.1624 1.13274 14.528 1.13567 13.8933C1.10636 13.5489 1.17208 13.203 1.32567 12.8933C1.40118 12.7591 2.28613 12.66 2.59281 12.6257C2.65167 12.6191 2.68923 12.6149 2.69567 12.6133C2.8822 12.6031 3.06914 12.6031 3.25567 12.6133C3.15047 13.119 3.07037 13.6296 3.01567 14.1433ZM9.55567 2.90329C9.47531 2.8256 9.41167 2.7323 9.36868 2.62912C9.32569 2.52594 9.30425 2.41506 9.30567 2.30329C9.28327 2.08084 9.32856 1.85681 9.43562 1.66054C9.54268 1.46426 9.70651 1.30489 9.90567 1.20329C10.1093 1.0941 10.3399 1.0455 10.5703 1.06322C10.8007 1.08094 11.0211 1.16425 11.2057 1.30329C11.3937 1.44639 11.5249 1.65143 11.5762 1.88207C11.6274 2.11271 11.5954 2.35404 11.4857 2.56329C11.3909 2.79271 11.2425 2.99602 11.0528 3.15612C10.8631 3.31622 10.6377 3.42842 10.3957 3.48329C10.0958 3.32043 9.81421 3.12599 9.55567 2.90329ZM21.4057 17.3233V17.8233C21.2964 17.8919 21.1736 17.9363 21.0457 17.9533C20.8115 17.996 20.5737 18.0161 20.3357 18.0133H19.5257C19.4897 17.9925 19.4499 17.9791 19.4087 17.9739C19.3675 17.9688 19.3256 17.972 19.2857 17.9833C19.3352 16.2084 19.2079 14.433 18.9057 12.6833H19.2857C19.3595 12.6833 19.4609 12.6796 19.5806 12.6751C19.8989 12.6634 20.346 12.647 20.7457 12.6833C20.9757 12.6833 21.1957 12.6833 21.2857 12.8433C21.4096 13.0692 21.4652 13.3263 21.4457 13.5833C21.4457 13.9 21.425 14.2339 21.4059 14.5427L21.4059 14.5428L21.4059 14.5429C21.3925 14.7604 21.3798 14.9655 21.3757 15.1433L21.4057 17.3233ZM13.8957 14.8333C13.5369 14.859 13.1811 14.7523 12.8957 14.5333C12.5061 14.2422 12.2359 13.8192 12.1357 13.3433C12.0683 12.8101 12.2039 12.2711 12.5157 11.8333C12.662 11.6182 12.853 11.4372 13.0756 11.3026C13.2982 11.168 13.5473 11.083 13.8057 11.0533C13.8639 11.0447 13.9234 11.0533 13.9768 11.0782C14.0301 11.1031 14.0749 11.1431 14.1057 11.1933C15.2657 11.2033 15.6557 12.1133 15.5157 13.0333C15.4591 13.4619 15.274 13.8632 14.9848 14.1845C14.6956 14.5058 14.3159 14.732 13.8957 14.8333ZM13.3457 11.9933C13.2811 12.071 13.2241 12.1547 13.1757 12.2433C13.0418 12.5349 13.0169 12.8649 13.1057 13.1733C13.1786 13.3334 13.2924 13.4713 13.4357 13.5733C13.5312 13.6643 13.6544 13.7206 13.7857 13.7333C13.9907 13.678 14.1754 13.5646 14.3173 13.4066C14.4593 13.2487 14.5525 13.0531 14.5857 12.8433C14.6857 12.4433 14.6057 12.0033 14.0957 11.9333H13.8357C13.7373 11.9437 13.6401 11.9638 13.5457 11.9933C13.4805 12.0134 13.4109 12.0134 13.3457 11.9933ZM8.7857 14.8633C8.34302 15.0023 7.86838 15.0023 7.4257 14.8633C6.94961 14.7217 6.54324 14.4081 6.2857 13.9833C6.16523 13.7318 6.10353 13.4561 6.10526 13.1772C6.10699 12.8983 6.17211 12.6234 6.2957 12.3733C6.40858 12.1314 6.57249 11.9167 6.77618 11.7441C6.97987 11.5715 7.2185 11.445 7.4757 11.3733C7.55031 11.3482 7.6311 11.3482 7.7057 11.3733C8.11034 11.3043 8.52643 11.3748 8.8857 11.5733C9.32276 11.8073 9.65105 12.2029 9.80051 12.6756C9.94998 13.1482 9.90878 13.6606 9.6857 14.1033C9.5938 14.2835 9.46686 14.4436 9.31232 14.5741C9.15777 14.7046 8.97874 14.8029 8.7857 14.8633ZM7.4957 12.0333C7.27164 12.1858 7.10318 12.4069 7.0157 12.6633C6.97981 12.8001 6.97557 12.9432 7.0033 13.0818C7.03102 13.2204 7.08998 13.3509 7.1757 13.4633C7.32555 13.6365 7.53029 13.753 7.7557 13.7933C7.99141 13.8575 8.24 13.8575 8.4757 13.7933C8.55229 13.7703 8.62223 13.7292 8.67966 13.6735C8.73708 13.6178 8.7803 13.5492 8.8057 13.4733C8.89551 13.2763 8.92341 13.0566 8.8857 12.8433C8.82198 12.5969 8.67322 12.3808 8.4657 12.2333C8.25797 12.0736 7.99584 12.0018 7.7357 12.0333C7.69802 12.0505 7.6571 12.0593 7.6157 12.0593C7.57431 12.0593 7.53339 12.0505 7.4957 12.0333ZM15.1657 17.1833L18.4357 20.2933C18.8357 20.5533 19.0657 20.8433 19.0157 20.9533C18.8909 21.4629 18.6434 21.9343 18.2948 22.3264C17.9463 22.7186 17.5071 23.0196 17.0157 23.2033C15.645 23.621 14.2185 23.8267 12.7857 23.8133C12.6684 23.8204 12.551 23.8276 12.4335 23.8348C11.2276 23.9086 10.0067 23.9833 8.78569 23.9833C7.87622 23.9643 6.96984 23.8707 6.07569 23.7033C5.48582 23.6038 4.91113 23.429 4.36569 23.1833C3.95986 22.9984 3.61358 22.7041 3.36569 22.3333C3.14417 21.9632 3.0171 21.5442 2.99569 21.1133C2.91522 20.7633 2.94312 20.3971 3.07569 20.0633L3.64569 19.5933L5.86569 17.9133C5.93225 17.8592 6.01785 17.7723 6.11385 17.6748C6.24861 17.5378 6.40385 17.3801 6.55569 17.2633C6.7346 17.115 6.95425 17.0243 7.18569 17.0033C7.40062 16.9948 7.61635 16.9848 7.83243 16.9747C8.38041 16.949 8.93062 16.9233 9.47569 16.9233H12.9057C13.4484 16.8866 13.993 16.8866 14.5357 16.9233C14.7674 16.9431 14.9875 17.0339 15.1657 17.1833ZM4.70569 22.4233C5.19269 22.598 5.70024 22.7089 6.21569 22.7533C6.85659 22.8245 7.50085 22.8613 8.14569 22.8633C8.11978 22.6412 8.09249 22.4218 8.06536 22.2036C8.0192 21.8325 7.97348 21.4649 7.93569 21.0933C7.87569 20.8333 7.87569 20.5633 7.87569 20.3033V19.5133C7.89126 19.093 7.93106 18.6849 7.97151 18.27C7.98303 18.1518 7.99461 18.033 8.00569 17.9133C7.73928 17.9298 7.47211 17.9298 7.20569 17.9133C6.96883 18.0825 6.79876 18.2199 6.6614 18.3308C6.5552 18.4166 6.46854 18.4866 6.38569 18.5433L3.67569 20.3733C3.66052 20.5931 3.66052 20.8136 3.67569 21.0333C3.70318 21.3466 3.81363 21.6469 3.99569 21.9033C4.17947 22.1392 4.42533 22.3193 4.70569 22.4233ZM8.82569 22.9033C10.1357 22.8933 11.4457 22.8233 12.7557 22.7533L13.2857 22.7333C13.2604 22.409 13.2248 22.0899 13.1893 21.772C13.1548 21.4625 13.1204 21.1541 13.0957 20.8433V19.5433C13.1288 19.0101 13.1922 18.4793 13.2857 17.9533H12.8857H8.64569C8.65964 18.0231 8.67343 18.0915 8.68702 18.159C8.78057 18.6235 8.86457 19.0405 8.92569 19.5033C8.98569 19.7633 8.98569 20.0233 8.98569 20.2933V21.1033C8.96251 21.5671 8.91543 22.0248 8.86753 22.4904C8.85346 22.6273 8.83932 22.7648 8.82569 22.9033ZM14.0257 22.7433C14.9482 22.781 15.8706 22.6661 16.7557 22.4033L16.7157 22.3833C17.0563 22.2875 17.3722 22.1189 17.6415 21.8893C17.9108 21.6597 18.1271 21.3745 18.2757 21.0533L14.5757 17.9533H14.0557C14.0726 18.0776 14.0928 18.2019 14.113 18.3264C14.1642 18.6427 14.2157 18.9604 14.2157 19.2833V20.0833C14.2307 20.3531 14.2307 20.6235 14.2157 20.8933C14.1871 21.4945 14.1129 22.0683 14.0367 22.6583C14.033 22.6866 14.0294 22.7149 14.0257 22.7433Z" fill="white"/>
</svg>
