<svg width="23" height="24" viewBox="0 0 23 24" fill="none" xmlns="http://www.w3.org/2000/svg">
<path fill-rule="evenodd" clip-rule="evenodd" d="M21.0942 9.86684C21.963 11.1439 22.5182 12.608 22.7149 14.14C22.9671 15.8758 22.71 17.6475 21.9749 19.24C21.4709 20.2993 20.7484 21.2399 19.8549 22C19.2222 22.555 18.4842 22.9767 17.6849 23.24C17.6049 23.27 13.7449 24.35 13.4549 23.62C13.422 23.5364 13.4236 23.4433 13.4592 23.3608C13.4948 23.2784 13.5615 23.2134 13.6449 23.18C14.9277 23.1595 16.1983 22.9264 17.4049 22.49C18.0704 22.2354 18.6788 21.8513 19.1949 21.36C19.9389 20.6417 20.5366 19.7859 20.9549 18.84C21.5775 17.4165 21.8121 15.8536 21.6349 14.31C21.5025 13.0558 21.1191 11.8411 20.5075 10.7381C19.8959 9.63516 19.0686 8.66657 18.0749 7.89V7.97C18.0688 8.19669 18.0214 8.42037 17.9349 8.63C17.7776 8.9881 17.5281 9.29805 17.2119 9.5282C16.8956 9.75835 16.524 9.90045 16.1349 9.94C15.7429 9.99427 15.3436 9.95656 14.9687 9.82986C14.5938 9.70316 14.2536 9.49094 13.9749 9.21C13.6072 8.81593 13.3396 8.33919 13.1949 7.82C13.0248 7.22753 12.9785 6.58689 12.933 5.95661C12.901 5.51243 12.8693 5.0734 12.7949 4.66C12.6686 3.78612 12.2818 2.97063 11.6849 2.32C11.1426 1.77123 10.5013 1.33012 9.79487 1.02C9.81002 1.31981 9.81002 1.62019 9.79487 1.92C9.76836 2.2841 9.71149 2.64536 9.62487 3C9.40043 3.85234 9.00208 4.64904 8.45487 5.34C7.76934 6.22887 6.88806 6.98273 6.01101 7.73295C5.37841 8.27409 4.74801 8.81334 4.19487 9.4C3.48537 10.1279 2.88271 10.9528 2.40487 11.85C1.94002 12.7488 1.58096 13.6985 1.33487 14.68C1.17027 15.2674 1.06968 15.8709 1.03487 16.48C1.00021 17.0741 1.05072 17.6702 1.18487 18.25C1.56148 19.6531 2.36529 20.9042 3.48487 21.83C4.53487 22.7 7.00487 23.84 7.83487 23.25C7.89533 23.2761 7.94511 23.322 7.976 23.3802C8.0069 23.4383 8.01708 23.5053 8.00487 23.57C7.90487 24.19 5.38487 24.33 3.00487 22.48C1.69014 21.4693 0.727802 20.0695 0.254873 18.48C0.0623872 17.8076 -0.0219989 17.1089 0.00487345 16.41C0.029232 15.7348 0.126463 15.0643 0.294873 14.41C0.536517 13.3383 0.909328 12.3005 1.40487 11.32C1.94117 10.3364 2.61457 9.43404 3.40487 8.64C4.00587 8.0491 4.68339 7.52708 5.36013 7.00564C6.02337 6.49461 6.68587 5.98415 7.27487 5.41C8.04947 4.7025 8.62816 3.8069 8.95487 2.81C9.04417 2.48213 9.1077 2.14778 9.14487 1.81C9.19769 1.38044 9.20091 1.02899 9.20344 0.753891C9.20808 0.247671 9.21036 0 9.51487 0C10.5192 0.417236 11.4641 0.965309 12.3249 1.63C13.118 2.36793 13.6659 3.33117 13.8949 4.39C13.9767 4.79918 14.0167 5.25545 14.0576 5.72268C14.0967 6.16894 14.1367 6.62521 14.2149 7.06C14.2723 7.55939 14.4661 8.03335 14.7749 8.43C14.9361 8.61767 15.1377 8.76643 15.3645 8.86514C15.5914 8.96385 15.8377 9.00996 16.0849 9C16.3379 8.99838 16.5863 8.93235 16.8068 8.80813C17.0272 8.68391 17.2124 8.5056 17.3449 8.29C17.4057 8.16452 17.443 8.02894 17.4549 7.89C17.4749 7.63039 17.4749 7.36961 17.4549 7.11C17.4349 6.95 17.5649 6.71 17.7149 6.79C19.0676 7.53557 20.2254 8.58973 21.0942 9.86684ZM10.3448 11.79C10.5627 12.3575 10.8736 12.8847 11.2648 13.35C11.5748 13.76 11.7961 14.2299 11.9148 14.73C11.9762 15.0427 11.962 15.3657 11.8733 15.6718C11.7846 15.978 11.624 16.2585 11.4048 16.49C11.1039 16.8199 10.7305 17.0755 10.3141 17.2369C9.89768 17.3983 9.44954 17.4609 9.00485 17.42C8.68604 17.3971 8.38111 17.2805 8.12843 17.0848C7.87575 16.8891 7.68662 16.623 7.58485 16.32C7.51089 16.0807 7.49041 15.8281 7.52485 15.58C7.2742 15.8174 7.04343 16.0749 6.83485 16.35C6.42278 16.8819 6.12028 17.4903 5.94485 18.14C5.76578 18.7153 5.69458 19.3188 5.73485 19.92C5.75622 20.5234 5.89196 21.1172 6.13485 21.67C6.24332 21.8926 6.37398 22.1036 6.52485 22.3C6.33485 22.93 5.97485 23.17 4.97485 21.44C4.79169 20.9786 4.67389 20.4939 4.62485 20C4.5543 19.2335 4.64282 18.4607 4.88485 17.73C5.17296 16.9911 5.59694 16.3127 6.13485 15.73C6.80485 15.03 8.11485 14.04 8.40485 14.21C8.44771 14.22 8.48795 14.239 8.52289 14.2658C8.55783 14.2926 8.58666 14.3265 8.60747 14.3653C8.62829 14.4041 8.6406 14.4468 8.6436 14.4907C8.64659 14.5347 8.6402 14.5787 8.62485 14.62C8.49807 14.8491 8.40383 15.0948 8.34484 15.35C8.29387 15.5641 8.31496 15.7891 8.40485 15.99C8.50466 16.1574 8.65612 16.2878 8.83645 16.3618C9.01678 16.4357 9.21624 16.4491 9.40485 16.4C9.83263 16.3397 10.2256 16.1308 10.5148 15.81C10.624 15.6978 10.7053 15.5615 10.7522 15.4121C10.7991 15.2627 10.8103 15.1044 10.7848 14.95C10.6787 14.4828 10.4816 14.041 10.2048 13.65C9.87182 13.1405 9.63459 12.5746 9.50485 11.98C9.45257 11.6411 9.49766 11.2943 9.63484 10.98C9.90436 10.334 10.2394 9.71748 10.6348 9.13997C10.7092 9.11673 10.7896 9.12234 10.86 9.1557C10.9304 9.18905 10.9857 9.2477 11.0148 9.31997C11.2178 9.88987 11.5618 10.399 12.0148 10.8C12.5391 11.2587 13.1553 11.6122 13.7867 11.9744C14.5042 12.3861 15.2412 12.8089 15.8848 13.41C16.7984 14.3119 17.4336 15.4574 17.7148 16.71C17.9044 17.5407 17.9248 18.4012 17.7748 19.24C17.6667 19.8213 17.4747 20.3838 17.2048 20.91C16.3848 22.42 15.7648 22.7 15.4748 21.91C16.1939 21.1193 16.6453 20.122 16.7648 19.06C16.8427 18.3472 16.7953 17.6264 16.6248 16.93C16.3862 15.8794 15.8639 14.9144 15.1148 14.14C14.5175 13.4883 13.8021 13.0018 13.1129 12.533C12.5331 12.1387 11.9718 11.7569 11.5148 11.3C11.2534 11.0389 11.025 10.7467 10.8348 10.43C10.6685 10.6227 10.5304 10.8382 10.4248 11.07C10.3192 11.2945 10.291 11.5477 10.3448 11.79Z" fill="white"/>
</svg>
