<svg width="24" height="24" viewBox="0 0 24 24" fill="none" xmlns="http://www.w3.org/2000/svg">
<path fill-rule="evenodd" clip-rule="evenodd" d="M16.1134 2.47532L15.1734 2.27532C15.1043 2.28009 15.0356 2.26079 14.9791 2.22068C14.9226 2.18058 14.8817 2.12215 14.8634 2.05532C14.8634 2.01638 14.8712 1.97783 14.8864 1.94198C14.9016 1.90613 14.9239 1.8737 14.9518 1.84664C14.9798 1.81958 15.013 1.79843 15.0494 1.78446C15.0857 1.77048 15.1245 1.76398 15.1634 1.76532C15.2586 1.7489 15.3538 1.7271 15.4494 1.70521C15.6449 1.66043 15.8419 1.61532 16.0434 1.61532C16.0481 1.41894 16.0681 1.22694 16.088 1.03521C16.1107 0.816894 16.1334 0.598941 16.1334 0.375318C16.1225 0.333456 16.1209 0.28974 16.1285 0.247168C16.1361 0.204596 16.1528 0.164174 16.1775 0.128672C16.2022 0.0931705 16.2343 0.0634287 16.2716 0.0414851C16.3088 0.0195414 16.3504 0.00591492 16.3934 0.00153938C16.4365 -0.00283615 16.4799 0.00214276 16.5209 0.0161349C16.5618 0.030127 16.5992 0.0528015 16.6305 0.0826044C16.6619 0.112407 16.6864 0.148634 16.7024 0.188801C16.7185 0.228968 16.7256 0.272127 16.7234 0.315318C16.7706 0.480647 16.8225 0.639778 16.8742 0.7982C16.9537 1.04223 17.0328 1.28458 17.0934 1.54532H17.5234C17.7005 1.565 17.873 1.59707 18.0432 1.62873C18.3056 1.67751 18.5626 1.72532 18.8234 1.72532C18.8668 1.72261 18.9102 1.72849 18.9513 1.74262C18.9924 1.75674 19.0303 1.77884 19.0628 1.80764C19.0953 1.83644 19.1218 1.87138 19.1408 1.91045C19.1598 1.94952 19.1709 1.99196 19.1734 2.03532C19.1775 2.07896 19.1726 2.12299 19.159 2.16467C19.1455 2.20635 19.1234 2.24479 19.0944 2.2776C19.0653 2.31042 19.0298 2.33692 18.9901 2.35545C18.9503 2.37398 18.9072 2.38414 18.8634 2.38532C18.4325 2.48939 17.9947 2.5629 17.5534 2.60532H17.1734C17.1463 3.04201 17.0895 3.47635 17.0034 3.90532C16.9889 3.98915 16.9443 4.06484 16.8781 4.11821C16.8118 4.17158 16.7284 4.19899 16.6434 4.19532C16.555 4.19015 16.4721 4.15069 16.4123 4.08532C16.3525 4.01995 16.3206 3.93385 16.3234 3.84532C16.3 3.59394 16.2527 3.35281 16.2055 3.11195C16.1719 2.9408 16.1383 2.76978 16.1134 2.59532V2.47532ZM6.52347 11.6753C7.79733 11.8351 9.0898 11.6086 10.2335 11.0253C10.7307 10.7741 11.2028 10.4761 11.6435 10.1353C12.1005 9.78836 12.5018 9.37357 12.8335 8.90532C13.6315 7.7664 13.9575 6.36271 13.7431 4.98867C13.5287 3.61463 12.7905 2.37698 11.6835 1.53532C7.38347 -2.00468 2.27347 1.66532 1.73347 5.60532C1.60455 6.40789 1.66195 7.22935 1.90124 8.00619C2.14054 8.78302 2.5553 9.49441 3.11347 10.0853C4.04532 10.9745 5.24334 11.5331 6.52347 11.6753ZM2.59347 5.67532C2.65232 4.99296 2.84827 4.3295 3.16959 3.72467C3.49091 3.11983 3.93099 2.58606 4.46347 2.15532C4.83293 1.88241 5.24523 1.67288 5.68347 1.53532C5.83655 1.48545 5.99475 1.42779 6.15855 1.36807L6.15856 1.36807C7.4072 0.912884 8.98181 0.338867 11.1035 2.19532C11.9998 2.90379 12.5862 3.93249 12.7392 5.06474C12.8922 6.19699 12.5997 7.34441 11.9235 8.26532C11.6416 8.64639 11.3045 8.98341 10.9235 9.26532C10.5389 9.56048 10.127 9.81832 9.69347 10.0353C8.74465 10.511 7.67844 10.7021 6.62347 10.5853C5.5824 10.4754 4.60425 10.0337 3.83347 9.32532C3.36289 8.85333 3.0065 8.27995 2.79158 7.64904C2.57665 7.01814 2.50889 6.34644 2.59347 5.68532V5.67532ZM23.3634 4.71529C22.681 4.26535 21.9618 3.87395 21.2134 3.54529H20.2134C19.0034 4.90529 17.6534 6.51529 17.5134 6.68529C16.5507 7.84637 15.6097 9.02904 14.6704 10.2095L14.6703 10.2095L14.6703 10.2096L14.6695 10.2106C14.3309 10.6361 13.9925 11.0614 13.6534 11.4853L9.7134 16.4853L7.1634 19.5653C7.1634 19.5944 7.05727 19.6967 6.92519 19.8239L6.92518 19.8239L6.92512 19.824L6.92511 19.824C6.78523 19.9588 6.61626 20.1216 6.5134 20.2553C6.39315 20.3944 6.31356 20.5639 6.2834 20.7453C6.27772 20.8365 6.29075 20.9279 6.32171 21.0139C6.35266 21.0999 6.40088 21.1786 6.4634 21.2453C6.56219 21.3582 6.79043 21.5458 6.95139 21.6781L6.95144 21.6781C7.01856 21.7333 7.07397 21.7788 7.1034 21.8053C7.26742 21.9519 7.43874 22.1179 7.61482 22.2886C7.94331 22.607 8.28836 22.9414 8.6334 23.1953C8.87049 23.4017 9.12104 23.5921 9.3834 23.7653C9.52067 23.8333 9.67528 23.8582 9.82697 23.8368C9.97865 23.8154 10.1203 23.7486 10.2334 23.6453C10.7561 23.1859 11.2535 22.6985 11.7234 22.1853C12.3537 21.528 12.9479 20.837 13.5034 20.1153C14.1016 19.3513 14.6686 18.5666 15.2344 17.7835C15.4537 17.4801 15.6728 17.1769 15.8934 16.8753C16.475 16.0869 17.0418 15.2892 17.6089 14.4911C18.3581 13.4366 19.1079 12.3812 19.8934 11.3453C20.4634 10.5653 21.0534 9.79529 21.6634 9.05529L23.4134 6.81529C23.5913 6.62492 23.7582 6.42459 23.9134 6.21529C23.96 6.11751 23.9904 6.01281 24.0034 5.90529C23.9988 5.67037 23.9384 5.43992 23.8271 5.23299C23.7158 5.02606 23.5569 4.8486 23.3634 4.71529ZM16.9578 13.737L16.9577 13.7371L16.9577 13.7371C16.3347 14.58 15.7115 15.423 15.0734 16.2553C14.8035 16.6085 14.5358 16.9639 14.2681 17.3193L14.2678 17.3197C13.7323 18.0308 13.1967 18.742 12.6434 19.4353C12.1026 20.1322 11.5251 20.7998 10.9134 21.4353C10.8234 21.5353 10.1434 22.2653 9.7134 22.6453C9.5234 22.5053 9.3334 22.3453 9.1434 22.1853C8.93244 21.9978 8.72147 21.8036 8.51566 21.6143C8.28246 21.3997 8.05588 21.1912 7.8434 21.0053C7.8434 21.0053 7.6734 20.7753 7.5534 20.6553C7.68024 20.5418 7.83383 20.4328 7.93084 20.3639L7.93086 20.3639C7.97915 20.3296 8.01343 20.3053 8.0234 20.2953L10.5234 17.1253L14.3434 12.0453C14.5923 11.7127 14.8412 11.3789 15.0905 11.0446C16.0633 9.74004 17.0425 8.42682 18.0534 7.14529C18.17 6.9969 18.2891 6.84727 18.4084 6.69727C18.627 6.4227 18.8465 6.1469 19.0534 5.87529L19.1253 5.97926C19.2793 6.20226 19.4289 6.41878 19.5934 6.63529C19.7248 6.80818 19.7988 6.88064 19.875 6.95519L19.875 6.95521L19.875 6.95522C19.9089 6.98846 19.9433 7.02212 19.9834 7.06529C20.0758 7.16475 20.1833 7.25412 20.2916 7.34415L20.2916 7.34416L20.2917 7.34425L20.2917 7.34428C20.3358 7.38093 20.38 7.41769 20.4234 7.45529C20.5734 7.58529 21.0134 7.91529 21.3234 8.12529L21.0034 8.52529C20.3634 9.27529 19.7534 10.0353 19.1534 10.8153C18.4062 11.7775 17.6821 12.7571 16.9578 13.737ZM22.7834 6.36529L21.7834 7.50529C21.7486 7.45886 21.7138 7.41216 21.6788 7.36527L21.6788 7.3652L21.6787 7.36513L21.6787 7.36511C21.5029 7.12928 21.3236 6.88881 21.1234 6.65529C20.9311 6.40971 20.7169 6.18211 20.4834 5.97529C20.1697 5.71507 19.8353 5.48095 19.4834 5.27529C19.8434 4.84529 20.2134 4.41529 20.5934 3.99529C20.6004 3.97247 20.6004 3.9481 20.5934 3.92529C20.6196 4.00978 20.6767 4.08123 20.7534 4.12529C20.8649 4.19032 21.0195 4.26687 21.198 4.35521C21.5959 4.55215 22.1123 4.80774 22.5334 5.12529C22.8434 5.34529 23.1334 5.55529 23.1434 5.82529C23.1045 5.75402 23.0111 5.93881 22.9202 6.11857C22.8708 6.21626 22.8221 6.31247 22.7834 6.36529ZM6.9334 6.35531C6.79861 6.3466 6.66481 6.32653 6.5334 6.29531C6.07059 6.19011 5.6432 5.96608 5.2934 5.64531C5.16175 5.51444 5.05764 5.35854 4.98723 5.18679C4.91681 5.01504 4.88151 4.83092 4.8834 4.64531C4.87117 4.2495 4.99431 3.86136 5.23249 3.545C5.47067 3.22863 5.80964 3.00298 6.1934 2.90531C6.607 2.79443 7.03689 2.75719 7.4634 2.79531C7.5234 2.51531 7.5934 2.23531 7.6634 1.95531C7.66942 1.91697 7.68308 1.88023 7.70357 1.84727C7.72405 1.8143 7.75094 1.78579 7.78265 1.76341C7.81435 1.74103 7.85023 1.72524 7.88815 1.71698C7.92607 1.70871 7.96526 1.70815 8.0034 1.71531C8.07453 1.74043 8.13359 1.79144 8.1688 1.85815C8.20401 1.92487 8.21279 2.0024 8.1934 2.07531V2.90531C8.46777 2.94359 8.73864 3.00379 9.0034 3.08531L9.8534 3.44531C9.889 3.45941 9.92132 3.48066 9.94838 3.50776C9.97544 3.53485 9.99665 3.5672 10.0107 3.60282C10.0248 3.63843 10.0314 3.67655 10.0301 3.71482C10.0289 3.75309 10.0198 3.79069 10.0034 3.82531C9.99667 3.8776 9.97582 3.92706 9.94308 3.96838C9.91034 4.00971 9.86696 4.04132 9.8176 4.05983C9.76823 4.07834 9.71476 4.08305 9.66292 4.07344C9.61109 4.06383 9.56285 4.04028 9.5234 4.00531L8.7534 3.74531C8.53978 3.69026 8.32259 3.65017 8.1034 3.62531V4.62531V5.36531C8.47668 5.40313 8.84324 5.49057 9.1934 5.62531C9.62464 5.78923 9.98056 6.10599 10.1934 6.51531C10.3064 6.72955 10.3654 6.9681 10.3654 7.21031C10.3654 7.45251 10.3064 7.69107 10.1934 7.90531C9.91944 8.46783 9.43416 8.89919 8.8434 9.10531C8.45522 9.19539 8.05157 9.19539 7.6634 9.10531C7.66891 9.20857 7.66891 9.31205 7.6634 9.41531C7.66214 9.45953 7.652 9.50305 7.63359 9.54328C7.61517 9.5835 7.58886 9.61962 7.55621 9.64947C7.52355 9.67933 7.48523 9.70231 7.44352 9.71705C7.40181 9.7318 7.35756 9.73801 7.3134 9.73531C7.22496 9.72765 7.14302 9.6857 7.08509 9.61843C7.02717 9.55116 6.99785 9.46391 7.0034 9.37531V8.90531C6.50883 8.69562 6.02789 8.45515 5.5634 8.18531C5.52384 8.1672 5.48838 8.14121 5.4592 8.10894C5.43002 8.07666 5.40773 8.03878 5.39369 7.99759C5.37965 7.95641 5.37416 7.9128 5.37755 7.86942C5.38094 7.82604 5.39314 7.78381 5.4134 7.74531C5.43253 7.7054 5.4595 7.66976 5.49269 7.64048C5.52588 7.61121 5.56462 7.58892 5.6066 7.57492C5.64859 7.56093 5.69296 7.55552 5.73707 7.55902C5.78119 7.56253 5.82415 7.57486 5.8634 7.59531L6.00205 7.65857L6.00205 7.65858C6.29339 7.79177 6.60597 7.93468 6.9334 8.05531V6.67531V6.35531ZM9.34753 7.31134C9.36162 7.20394 9.34637 7.09474 9.3034 6.99531C9.20895 6.86851 9.08895 6.76294 8.95115 6.68542C8.81334 6.60791 8.66081 6.56017 8.5034 6.54531L7.9734 6.46531V6.81531C7.94314 7.11188 7.90188 7.40113 7.86073 7.6897L7.86073 7.6897C7.83389 7.87791 7.80708 8.06583 7.7834 8.25531C8.04788 8.29526 8.31798 8.27474 8.5734 8.19531C8.84771 8.07341 9.07559 7.86657 9.2234 7.60531C9.29055 7.52032 9.33345 7.41874 9.34753 7.31134ZM7.2634 3.58531C6.99644 3.59593 6.73299 3.64997 6.4834 3.74531C6.29511 3.80901 6.13552 3.93741 6.03298 4.10769C5.93045 4.27797 5.89162 4.4791 5.9234 4.67531C5.92814 4.74345 5.94984 4.80933 5.98651 4.86697C6.02318 4.9246 6.07368 4.97215 6.1334 5.00531C6.33468 5.12959 6.5593 5.21127 6.7934 5.24531C6.86329 5.25084 6.93351 5.25084 7.0034 5.24531V4.90531C7.06441 4.46064 7.15123 4.0199 7.2634 3.58531ZM3.50781 13.3894H3.5078L3.50776 13.3894C3.29652 13.3746 3.08601 13.3599 2.87345 13.3554H2.17345C2.17886 13.3222 2.17886 13.2885 2.17345 13.2554C2.08483 12.7995 1.97133 12.3488 1.83345 11.9054C1.83345 11.8284 1.8029 11.7547 1.74851 11.7003C1.69413 11.6459 1.62037 11.6154 1.54345 11.6154C1.46654 11.6154 1.39278 11.6459 1.33839 11.7003C1.28401 11.7547 1.25345 11.8284 1.25345 11.9054C1.23394 12.0849 1.20986 12.2583 1.18597 12.4304C1.14863 12.6993 1.11175 12.9649 1.09345 13.2454C1.09842 13.2919 1.09842 13.3388 1.09345 13.3854C0.844954 13.421 0.594462 13.4411 0.343453 13.4454C0.30531 13.4382 0.266119 13.4388 0.228199 13.447C0.19028 13.4553 0.154405 13.4711 0.122699 13.4935C0.0909934 13.5158 0.0641023 13.5444 0.0436192 13.5773C0.0231361 13.6103 0.00947752 13.647 0.00345284 13.6854C-0.00828526 13.7621 0.0101586 13.8403 0.0549107 13.9037C0.0996629 13.9671 0.167241 14.0107 0.243453 14.0254C0.553453 14.1254 0.853453 14.2154 1.15345 14.2854C1.1486 14.3152 1.1486 14.3456 1.15345 14.3754C1.18752 14.6252 1.23448 14.8717 1.28152 15.1188L1.28152 15.1188C1.31733 15.3068 1.3532 15.4952 1.38345 15.6854C1.38345 15.7287 1.39199 15.7716 1.40857 15.8116C1.42516 15.8517 1.44946 15.8881 1.48011 15.9187C1.51075 15.9493 1.54713 15.9737 1.58717 15.9902C1.6272 16.0068 1.67012 16.0154 1.71345 16.0154C1.75679 16.0154 1.7997 16.0068 1.83974 15.9902C1.87978 15.9737 1.91615 15.9493 1.9468 15.9187C1.97744 15.8881 2.00175 15.8517 2.01833 15.8116C2.03492 15.7716 2.04345 15.7287 2.04345 15.6854L2.05706 15.588L2.05707 15.588C2.11237 15.1931 2.16572 14.812 2.19345 14.4054C2.42809 14.4059 2.66233 14.3858 2.89345 14.3454C3.37666 14.2763 3.87931 14.1392 4.31511 14.0204L4.33345 14.0154C4.42097 14.0074 4.50175 13.965 4.55801 13.8975C4.61427 13.83 4.64141 13.7429 4.63345 13.6554C4.6255 13.5678 4.5831 13.4871 4.51558 13.4308C4.44807 13.3745 4.36097 13.3474 4.27345 13.3554L4.28345 13.4254C4.02055 13.4254 3.76364 13.4074 3.50781 13.3894Z" fill="white"/>
</svg>
