<svg width="150" height="41" fill="none" xmlns="http://www.w3.org/2000/svg"><g clip-path="url(#OpenAI_Logo 1__a)"><path fill-rule="evenodd" clip-rule="evenodd" d="M36.891 8.325a10.133 10.133 0 0 1 .87 8.324l.002-.003a10.253 10.253 0 0 1 1.264 12.014 10.138 10.138 0 0 1-6.777 4.916 10.251 10.251 0 0 1-9.78 7.1 10.13 10.13 0 0 1-7.644-3.406 10.25 10.25 0 0 1-11.04-4.917 10.133 10.133 0 0 1-.87-8.324 10.252 10.252 0 0 1-1.26-12.017 10.138 10.138 0 0 1 6.776-4.916A10.25 10.25 0 0 1 18.209 0a10.137 10.137 0 0 1 7.643 3.408 10.25 10.25 0 0 1 11.04 4.917Zm-19.299 27.93a7.597 7.597 0 0 0 4.88 1.764 7.632 7.632 0 0 0 7.616-7.623v-9.457a.12.12 0 0 0-.066-.094l-3.424-1.977v11.42c.003.476-.251.917-.666 1.152l-8.1 4.678c-.07.044-.178.103-.24.136ZM5.185 25.914a7.59 7.59 0 0 0 .91 5.108 7.632 7.632 0 0 0 10.414 2.79l8.188-4.727a.126.126 0 0 0 .048-.105v-3.954l-9.889 5.71c-.412.24-.92.24-1.33 0l-8.1-4.677a10.477 10.477 0 0 1-.24-.144ZM7.93 10.002a7.598 7.598 0 0 0-3.968 3.342h-.001a7.632 7.632 0 0 0 2.79 10.41l8.19 4.732a.12.12 0 0 0 .115-.01l3.423-1.977-9.888-5.709a1.318 1.318 0 0 1-.665-1.152V10.28c0-.045 0-.101.002-.154l.002-.125Zm14.27 4.177 9.889 5.71c.413.236.666.676.662 1.152v9.637a7.626 7.626 0 0 0 1.177-13.757l-8.189-4.728a.121.121 0 0 0-.116.01L22.2 14.178Zm13.293.58-.238-.142-8.1-4.678c-.41-.24-.919-.24-1.33 0l-9.89 5.71v-3.953a.127.127 0 0 1 .049-.105l8.188-4.724a7.622 7.622 0 0 1 11.321 7.893ZM10.65 19.83l3.425 1.977v-.002l.005-11.414a1.315 1.315 0 0 1 .666-1.152l8.1-4.678c.071-.043.178-.103.24-.136a7.625 7.625 0 0 0-12.502 5.855v9.456a.12.12 0 0 0 .066.094Zm9.689-4.576-4.405 2.544v5.084l4.405 2.543 4.405-2.543v-5.085l-4.405-2.543Zm26.37 4.303c0 6.65 4.27 11.288 10.19 11.288 5.918 0 10.19-4.637 10.19-11.288 0-6.651-4.272-11.288-10.19-11.288-5.92 0-10.19 4.637-10.19 11.288Zm16.474 0c0 4.759-2.593 7.84-6.285 7.84-3.691 0-6.284-3.081-6.284-7.84 0-4.76 2.593-7.841 6.284-7.841 3.692 0 6.285 3.081 6.285 7.84Zm14.902 11.288c4.485 0 7.048-3.783 7.048-8.329 0-4.545-2.563-8.329-7.048-8.329-2.074 0-3.6.824-4.607 2.014v-1.708h-3.66V36h3.66v-7.17c1.007 1.19 2.533 2.014 4.607 2.014Zm-4.698-8.786c0-3.02 1.708-4.668 3.966-4.668 2.654 0 4.088 2.075 4.088 5.125 0 3.051-1.434 5.126-4.088 5.126-2.258 0-3.966-1.678-3.966-4.637v-.946Zm28.518 4.301c-1.129 2.807-3.661 4.485-6.865 4.485-4.576 0-7.78-3.386-7.78-8.329 0-4.698 2.99-8.329 7.628-8.329 4.637 0 7.108 3.509 7.108 7.902v1.22H90.769c.275 2.746 1.922 4.424 4.271 4.424 1.8 0 3.234-.915 3.722-2.562l3.143 1.19Zm-3.6-5.796c-.03-1.77-1.13-3.295-3.448-3.295-1.891 0-3.356 1.129-3.905 3.295h7.353Zm6.438 9.946h3.661v-9.397c0-2.288 1.678-3.508 3.326-3.508 2.013 0 2.806 1.433 2.806 3.416v9.489h3.661V19.953c0-3.448-2.013-5.766-5.369-5.766-2.075 0-3.509.945-4.424 2.013v-1.708h-3.661v16.017Zm15.879 0 8.298-21.905h4.424l8.298 21.905h-3.936l-1.891-5.004h-9.458l-1.861 5.004h-3.874Zm13.911-8.42-3.478-9.153-3.416 9.152h6.894Zm13.394-13.422h-3.905v21.905h3.905V8.667Z" fill="#000"/></g><defs><clipPath id="OpenAI_Logo 1__a"><path fill="#fff" d="M0 0h150v40.678H0z"/></clipPath></defs></svg>