<svg width="24" height="24" viewBox="0 0 24 24" fill="none" xmlns="http://www.w3.org/2000/svg">
<path fill-rule="evenodd" clip-rule="evenodd" d="M17.9999 12.46H18.2099C18.2546 12.4642 18.2997 12.4594 18.3425 12.446C18.3853 12.4326 18.4251 12.4109 18.4595 12.3821C18.4939 12.3533 18.5222 12.3179 18.5429 12.2781C18.5636 12.2383 18.5762 12.1948 18.5799 12.15C18.5863 12.077 18.5681 12.0039 18.5282 11.9423C18.4884 11.8808 18.4292 11.8342 18.3599 11.81C18.3319 11.7842 18.2986 11.7646 18.2624 11.7525C18.2263 11.7405 18.1879 11.7362 18.1499 11.74H17.9999C17.0613 11.6147 16.1413 11.3763 15.2599 11.03C14.33 10.6745 13.4802 10.1374 12.7599 9.45005C12.1079 8.81842 11.567 8.08143 11.1599 7.27005C10.8768 6.71655 10.6296 6.14536 10.4199 5.56005C9.90366 4.05511 9.56798 2.49418 9.41995 0.910047C9.41023 0.840258 9.37544 0.776393 9.32207 0.730385C9.2687 0.684377 9.20041 0.659374 9.12995 0.660047C8.86926 0.660047 8.69441 1.32666 8.43213 2.32662C8.08068 3.66653 7.57224 5.60494 6.48995 7.34005C6.05498 8.05314 5.51947 8.69979 4.89995 9.26005C4.48852 9.63817 4.03952 9.97324 3.55995 10.26C3.06747 10.561 2.54457 10.809 1.99995 11C1.56099 11.1581 1.1763 11.252 0.864484 11.3281C0.288348 11.4687 -0.0389828 11.5486 -5.25201e-05 11.86C0.00705302 11.8985 0.0218718 11.9352 0.0435115 11.9678C0.0651512 12.0004 0.0931643 12.0283 0.125864 12.0497C0.158564 12.0712 0.195274 12.0859 0.233785 12.0928C0.272295 12.0997 0.311809 12.0988 0.349947 12.09C0.37389 12.09 0.400412 12.0855 0.433479 12.0798C0.635198 12.0451 1.0805 11.9685 2.66995 12.63C3.14377 12.8045 3.59131 13.0435 3.99995 13.34C4.55071 13.7509 5.03911 14.2393 5.44995 14.79C6.08176 15.6209 6.59345 16.5365 6.96995 17.51C7.75122 19.4859 7.96839 21.0675 8.10775 22.0825C8.21456 22.8603 8.27567 23.3053 8.50995 23.34C8.54882 23.3472 8.58874 23.3462 8.62725 23.3374C8.66576 23.3285 8.70205 23.3118 8.73389 23.2884C8.76573 23.265 8.79245 23.2353 8.81241 23.2012C8.83237 23.1671 8.84514 23.1293 8.84995 23.09C9.12988 21.3673 9.53088 19.6664 10.0499 18C10.2826 17.3067 10.5806 16.637 10.9399 16C11.322 15.331 11.8119 14.7295 12.3899 14.22C12.9833 13.714 13.66 13.3147 14.3899 13.04C14.8576 12.868 15.3394 12.7375 15.8299 12.65C16.1041 12.6265 16.3814 12.6015 16.6623 12.5761L16.6629 12.5761C17.099 12.5367 17.5439 12.4965 17.9999 12.46ZM14.1299 12.21C13.2568 12.4608 12.439 12.8748 11.7199 13.43C11.0022 14.0025 10.3984 14.7047 9.93995 15.5C9.54452 16.199 9.22919 16.9404 8.99995 17.71C8.80592 18.4269 8.65565 19.1549 8.54995 19.89C8.37842 18.5688 8.01807 17.2789 7.47995 16.06C7.16467 15.3396 6.7507 14.6665 6.24995 14.06C5.74174 13.4596 5.14487 12.9403 4.47995 12.52C4.01503 12.2386 3.51818 12.0137 2.99995 11.85C2.84245 11.7975 2.68495 11.7619 2.52744 11.7263C2.47495 11.7144 2.42245 11.7025 2.36995 11.69L2.59995 11.63C3.08008 11.4912 3.54826 11.314 3.99995 11.1C4.73021 10.7692 5.40486 10.3273 5.99995 9.79005C6.58049 9.24731 7.07604 8.62029 7.46995 7.93005C8.2203 6.54411 8.73723 5.04402 8.99995 3.49005C9.11963 4.64266 9.37472 5.77715 9.75995 6.87005C10.2304 8.17168 10.9973 9.34598 11.9999 10.3C12.881 11.0338 13.9015 11.5815 14.9999 11.91C15.0811 11.9253 15.1612 11.9453 15.2399 11.97C14.8513 12.0221 14.467 12.1024 14.0899 12.21H14.1299ZM23.69 4.80007C23.2354 4.68419 22.7747 4.59405 22.31 4.53007H22.21C22.2149 4.47686 22.2149 4.42329 22.21 4.37007C22.173 4.08023 22.1093 3.80559 22.0449 3.52741L22.0449 3.52739L22.0449 3.52734C22.0048 3.35446 21.9645 3.1802 21.93 3.00007C21.93 2.92051 21.8984 2.8442 21.8421 2.78794C21.7858 2.73168 21.7095 2.70007 21.63 2.70007C21.5504 2.70007 21.4741 2.73168 21.4178 2.78794C21.3616 2.8442 21.33 2.92051 21.33 3.00007C21.3058 3.16235 21.278 3.32224 21.2504 3.48139C21.1981 3.7832 21.1462 4.08235 21.12 4.39007V4.51007C20.7991 4.51007 20.4921 4.58932 20.1865 4.66825L20.1865 4.66826C20.0444 4.70493 19.9027 4.74152 19.76 4.77007C19.7206 4.77007 19.6816 4.77783 19.6452 4.79291C19.6088 4.80799 19.5757 4.83008 19.5478 4.85794C19.52 4.8858 19.4979 4.91887 19.4828 4.95527C19.4677 4.99167 19.46 5.03068 19.46 5.07007C19.46 5.10947 19.4677 5.14848 19.4828 5.18488C19.4979 5.22128 19.52 5.25435 19.5478 5.28221C19.5757 5.31006 19.6088 5.33216 19.6452 5.34724C19.6816 5.36231 19.7206 5.37007 19.76 5.37007C19.9287 5.39576 20.0975 5.42548 20.2668 5.45529C20.5589 5.50673 20.8524 5.55842 21.15 5.59007C21.1852 5.86046 21.2309 6.12394 21.2767 6.38863L21.2767 6.38866C21.3089 6.57427 21.3411 6.76047 21.37 6.95007C21.3751 7.03939 21.4142 7.12336 21.4793 7.18473C21.5444 7.2461 21.6305 7.28022 21.72 7.28007C21.7646 7.28156 21.809 7.2737 21.8503 7.257C21.8917 7.2403 21.9291 7.21514 21.9602 7.18312C21.9913 7.1511 22.0153 7.11294 22.0308 7.07109C22.0462 7.02923 22.0528 6.9846 22.05 6.94007C22.0659 6.8202 22.0826 6.70105 22.0993 6.58222C22.1451 6.25495 22.1906 5.9302 22.22 5.60007C22.4825 5.60007 22.7418 5.56888 22.9998 5.53785C23.2038 5.51333 23.4069 5.4889 23.61 5.48007C23.6986 5.48851 23.7871 5.4618 23.8563 5.4057C23.9255 5.3496 23.9699 5.26858 23.98 5.18007C23.9888 5.09177 23.9638 5.0034 23.9099 4.93285C23.8561 4.86231 23.7775 4.81485 23.69 4.80007ZM18.4503 20.2076C18.7099 20.2495 18.97 20.2914 19.24 20.3201C19.3195 20.3156 19.3981 20.3391 19.4621 20.3866C19.5261 20.4341 19.5713 20.5026 19.59 20.5801C19.5927 20.6251 19.5862 20.6702 19.5708 20.7125C19.5555 20.7549 19.5316 20.7937 19.5007 20.8265C19.4697 20.8593 19.4324 20.8854 19.391 20.9032C19.3496 20.921 19.305 20.9302 19.26 20.9301C19.1453 20.9472 19.0319 20.966 18.9191 20.9848C18.5693 21.0429 18.2253 21.1001 17.87 21.1001V21.1901C17.8472 21.4974 17.8115 21.8015 17.7757 22.106C17.7486 22.3366 17.7215 22.5674 17.7 22.8001C17.7 22.8912 17.6645 22.9788 17.601 23.0441C17.5375 23.1095 17.451 23.1475 17.36 23.1501C17.2698 23.1501 17.1833 23.1143 17.1195 23.0505C17.0558 22.9868 17.02 22.9003 17.02 22.8101C16.9957 22.6462 16.9659 22.4831 16.9361 22.3205C16.8679 21.9474 16.8 21.5762 16.8 21.2001C16.795 21.167 16.795 21.1333 16.8 21.1001H16.53C16.2992 21.0693 16.0526 21.0228 15.801 20.9753C15.5621 20.9302 15.3186 20.8842 15.08 20.8501C15.002 20.8529 14.9261 20.8252 14.8682 20.7729C14.8103 20.7207 14.7751 20.6479 14.77 20.5701C14.7672 20.4895 14.7959 20.411 14.8501 20.3513C14.9042 20.2916 14.9795 20.2553 15.06 20.2501C15.6225 20.1221 16.1943 20.0385 16.77 20.0001V19.9001C16.8168 19.4708 16.8941 19.0598 16.9733 18.6385C16.9956 18.52 17.018 18.4008 17.04 18.2801C17.04 18.2005 17.0716 18.1242 17.1278 18.068C17.1841 18.0117 17.2604 17.9801 17.34 17.9801C17.4195 17.9801 17.4958 18.0117 17.5521 18.068C17.6084 18.1242 17.64 18.2005 17.64 18.2801C17.6684 18.4994 17.7034 18.7154 17.7383 18.9308C17.7894 19.2457 17.8403 19.5594 17.87 19.8801C17.865 19.96 17.865 20.0402 17.87 20.1201C18.0657 20.1456 18.2579 20.1766 18.4503 20.2076Z" fill="white"/>
</svg>
