<svg width="150" height="41" fill="none" xmlns="http://www.w3.org/2000/svg"><g clip-path="url(#zapier-logo_white 1__a)"><path fill-rule="evenodd" clip-rule="evenodd" d="M104.398.002a3.9 3.9 0 0 0-2.843 1.092 3.765 3.765 0 0 0-1.116 2.818 3.807 3.807 0 0 0 1.118 2.84 3.814 3.814 0 0 0 2.841 1.116 3.761 3.761 0 0 0 2.818-1.116 3.85 3.85 0 0 0 .834-1.309 3.866 3.866 0 0 0 .255-1.53 3.732 3.732 0 0 0-1.09-2.815 3.731 3.731 0 0 0-2.813-1.092l-.004-.004Zm17.859 9.033c2.471-.002 4.518.479 6.14 1.444a9.13 9.13 0 0 1 3.647 3.984 13.365 13.365 0 0 1 1.215 5.834v1.497c0 .458-.035 1.025-.102 1.702h-16.399c.187 1.448.61 2.564 1.282 3.346.928 1.083 2.337 1.624 4.228 1.624 1.59 0 2.723-.338 3.399-1.014a5.539 5.539 0 0 0 1.409-2.438l5.989 1.677a12.05 12.05 0 0 1-1.902 3.931 8.846 8.846 0 0 1-3.502 2.766c-1.472.676-3.306 1.014-5.502 1.014-2.539-.002-4.729-.535-6.57-1.6a10.795 10.795 0 0 1-4.263-4.49 14.603 14.603 0 0 1-1.497-6.796c0-3.891 1.099-6.944 3.297-9.16 2.199-2.214 5.242-3.321 9.131-3.321Zm4.594 9.892c-.378-2.774-1.976-4.16-4.794-4.16-1.792-.003-3.145.537-4.059 1.62a5.717 5.717 0 0 0-1.116 2.54h9.969ZM61.889 9.133c-2.468 0-4.48.372-6.035 1.117a7.92 7.92 0 0 0-3.501 3.068 11.172 11.172 0 0 0-1.47 4.439l6.493.912c.235-1.383.705-2.364 1.41-2.941a4.302 4.302 0 0 1 2.79-.864c1.317 0 2.273.353 2.867 1.057.588.705.888 1.68.888 2.966v.642h-6.243c-3.177 0-5.46.704-6.848 2.113-1.388 1.41-2.08 3.27-2.078 5.58 0 2.368.693 4.13 2.078 5.284 1.386 1.156 3.128 1.73 5.228 1.723 2.604 0 4.608-.896 6.01-2.688a9.991 9.991 0 0 0 1.736-3.702h.236l.895 5.883h5.883V18.824c0-3.079-.811-5.464-2.434-7.155-1.623-1.69-4.258-2.536-7.905-2.536Zm2.057 18.364c-.933.779-2.156 1.166-3.677 1.166-1.255 0-2.126-.22-2.614-.659a2.154 2.154 0 0 1-.737-1.673 2.196 2.196 0 0 1 .61-1.624 2.264 2.264 0 0 1 1.673-.61h6.14v.406a3.736 3.736 0 0 1-1.395 2.994Zm-28.722.356-.02-.067 13.336-12.21V9.693H27.143v5.883h12.78l.022.056-13.207 12.22v5.884h22.017v-5.883h-13.53Zm65.624-18.16h6.951V33.74h-6.951V9.693Zm47.985 0c-1.963 0-3.511.693-4.643 2.079-.813.995-1.43 2.467-1.853 4.414h-.204l-.909-6.493h-5.936v24.043h6.95v-12.33c0-1.554.364-2.746 1.092-3.575.728-.83 2.072-1.244 4.03-1.244h2.639V9.693h-1.166Zm-64.498 1.572c1.438-1.487 3.34-2.23 5.707-2.23 2.908 0 5.098 1.109 6.57 3.326 1.473 2.217 2.209 5.285 2.209 9.205 0 4.058-.761 7.22-2.283 9.486-1.522 2.267-3.737 3.4-6.647 3.4a8.124 8.124 0 0 1-4.108-.99 7 7 0 0 1-2.765-3.093 12.99 12.99 0 0 1-.888-2.466h-.254v12.745h-6.95V9.704h5.936l.909 6.493h.222c.498-2.187 1.278-3.83 2.342-4.932Zm2.607 16.955c1.726 0 2.994-.587 3.805-1.761h.007c.812-1.168 1.216-2.783 1.212-4.848 0-1.996-.398-3.552-1.195-4.667-.796-1.116-2.072-1.674-3.829-1.674-1.587-.011-2.83.512-3.727 1.572-.897 1.059-1.346 2.585-1.346 4.58v.457c-.002 1.963.447 3.51 1.346 4.64a4.483 4.483 0 0 0 3.727 1.701Z" fill="#201515"/><path d="M24.046 27.852H0v5.89h24.046v-5.89Z" fill="#FF4F00"/></g><defs><clipPath id="zapier-logo_white 1__a"><path fill="#fff" d="M0 0h150v40.8H0z"/></clipPath></defs></svg>